<svg width="24" height="24" viewBox="0 0 24 24" fill="none" xmlns="http://www.w3.org/2000/svg">
<path d="M12.2779 4.2644C12.2034 4.19319 12.1044 4.15344 12.0014 4.15344C11.8984 4.15344 11.7993 4.19319 11.7249 4.2644L2.5199 13.0579C2.4808 13.0953 2.4497 13.1402 2.42848 13.19C2.40725 13.2397 2.39634 13.2933 2.3964 13.3474L2.3949 21.6004C2.3949 22.0247 2.56347 22.4317 2.86353 22.7317C3.16358 23.0318 3.57055 23.2004 3.99489 23.2004H8.79988C9.01205 23.2004 9.21554 23.1161 9.36557 22.966C9.51559 22.816 9.59988 22.6125 9.59988 22.4004V15.6004C9.59988 15.4943 9.64202 15.3925 9.71704 15.3175C9.79205 15.2425 9.89379 15.2004 9.99988 15.2004H13.9999C14.106 15.2004 14.2077 15.2425 14.2827 15.3175C14.3577 15.3925 14.3999 15.4943 14.3999 15.6004V22.4004C14.3999 22.6125 14.4842 22.816 14.6342 22.966C14.7842 23.1161 14.9877 23.2004 15.1999 23.2004H20.0029C20.4272 23.2004 20.8342 23.0318 21.1342 22.7317C21.4343 22.4317 21.6028 22.0247 21.6028 21.6004V13.3474C21.6029 13.2933 21.592 13.2397 21.5708 13.19C21.5495 13.1402 21.5184 13.0953 21.4794 13.0579L12.2779 4.2644Z" fill="#8B9EB1"/>
<path d="M23.7455 11.4075L20.0055 7.82954V2.40005C20.0055 2.18787 19.9212 1.98439 19.7712 1.83436C19.6211 1.68433 19.4176 1.60005 19.2055 1.60005H16.8055C16.5933 1.60005 16.3898 1.68433 16.2398 1.83436C16.0898 1.98439 16.0055 2.18787 16.0055 2.40005V4.00005L13.1095 1.23105C12.8385 0.957049 12.4355 0.800049 12 0.800049C11.566 0.800049 11.164 0.957049 10.893 1.23155L0.258018 11.4065C-0.0529809 11.7065 -0.0919808 12.2 0.191018 12.525C0.262084 12.6071 0.349099 12.6738 0.446767 12.7211C0.544436 12.7685 0.650715 12.7954 0.759137 12.8004C0.867559 12.8053 0.975857 12.7882 1.07744 12.75C1.17902 12.7117 1.27176 12.6532 1.35002 12.578L11.725 2.66405C11.7994 2.59284 11.8985 2.55309 12.0015 2.55309C12.1045 2.55309 12.2035 2.59284 12.278 2.66405L22.654 12.578C22.8068 12.7246 23.0115 12.8046 23.2233 12.8005C23.435 12.7964 23.6364 12.7085 23.7835 12.556C24.0905 12.238 24.065 11.713 23.7455 11.4075Z" fill="#8B9EB1"/>
</svg>
