<svg width="18" height="18" viewBox="0 0 18 18" fill="none" xmlns="http://www.w3.org/2000/svg">
<path d="M14.1744 17.4019C14.0481 17.4024 13.9249 17.363 13.8223 17.2894L8.99906 13.7926L4.17585 17.2894C4.0728 17.3641 3.94866 17.4041 3.82136 17.4037C3.69407 17.4032 3.57022 17.3623 3.46772 17.2868C3.36522 17.2113 3.28938 17.1052 3.25117 16.9837C3.21296 16.8623 3.21436 16.7319 3.25515 16.6113L5.13629 11.0395L0.260942 7.69618C0.155339 7.62384 0.0756353 7.51962 0.0334775 7.39876C-0.00868039 7.2779 -0.0110835 7.14672 0.0266195 7.0244C0.0643224 6.90207 0.140155 6.79501 0.243038 6.71885C0.345922 6.6427 0.470463 6.60143 0.598466 6.6011H6.61314L8.42827 1.01507C8.46737 0.894474 8.54367 0.789358 8.64622 0.714806C8.74876 0.640254 8.87228 0.600098 8.99906 0.600098C9.12584 0.600098 9.24937 0.640254 9.35191 0.714806C9.45446 0.789358 9.53075 0.894474 9.56985 1.01507L11.385 6.60297H17.3997C17.5278 6.60291 17.6526 6.64388 17.7558 6.7199C17.859 6.79591 17.9352 6.90296 17.9731 7.02538C18.011 7.1478 18.0088 7.27915 17.9667 7.40019C17.9246 7.52124 17.8448 7.62562 17.7391 7.69805L12.8618 11.0395L14.7418 16.6098C14.7723 16.7 14.7809 16.7961 14.7668 16.8903C14.7528 16.9844 14.7166 17.0739 14.6611 17.1513C14.6057 17.2287 14.5327 17.2917 14.448 17.3353C14.3634 17.3789 14.2696 17.4017 14.1744 17.4019Z" fill="#8B9EB1"/>
</svg>
